<mxfile host="Electron" modified="2024-04-12T15:29:15.206Z" agent="Mozilla/5.0 (Windows NT 10.0; Win64; x64) AppleWebKit/537.36 (KHTML, like Gecko) draw.io/23.1.5 Chrome/120.0.6099.109 Electron/28.1.0 Safari/537.36" etag="qpAi9Yh6PuPMcIn63_8Z" version="23.1.5" type="device">
  <diagram name="Pagina-1" id="oY9gWkbMBPKVhpF_Wgz5">
    <mxGraphModel dx="187" dy="355" grid="0" gridSize="10" guides="1" tooltips="1" connect="1" arrows="1" fold="1" page="0" pageScale="1" pageWidth="827" pageHeight="1169" math="0" shadow="0">
      <root>
        <mxCell id="0" />
        <mxCell id="1" parent="0" />
        <mxCell id="Bs6r6sOlou3BlkuSGbO8-16" style="edgeStyle=orthogonalEdgeStyle;rounded=0;orthogonalLoop=1;jettySize=auto;html=1;entryX=0;entryY=0.5;entryDx=0;entryDy=0;endArrow=doubleBlock;endFill=1;" edge="1" parent="1" source="Bs6r6sOlou3BlkuSGbO8-2" target="Bs6r6sOlou3BlkuSGbO8-15">
          <mxGeometry relative="1" as="geometry" />
        </mxCell>
        <mxCell id="Bs6r6sOlou3BlkuSGbO8-39" style="edgeStyle=orthogonalEdgeStyle;rounded=0;orthogonalLoop=1;jettySize=auto;html=1;entryX=0;entryY=0.5;entryDx=0;entryDy=0;" edge="1" parent="1" source="Bs6r6sOlou3BlkuSGbO8-2" target="Bs6r6sOlou3BlkuSGbO8-19">
          <mxGeometry relative="1" as="geometry">
            <Array as="points">
              <mxPoint x="535" y="182" />
            </Array>
          </mxGeometry>
        </mxCell>
        <mxCell id="Bs6r6sOlou3BlkuSGbO8-40" style="edgeStyle=orthogonalEdgeStyle;rounded=0;orthogonalLoop=1;jettySize=auto;html=1;entryX=0;entryY=0.5;entryDx=0;entryDy=0;" edge="1" parent="1" source="Bs6r6sOlou3BlkuSGbO8-2" target="Bs6r6sOlou3BlkuSGbO8-22">
          <mxGeometry relative="1" as="geometry">
            <Array as="points">
              <mxPoint x="535" y="212" />
            </Array>
          </mxGeometry>
        </mxCell>
        <mxCell id="Bs6r6sOlou3BlkuSGbO8-41" style="edgeStyle=orthogonalEdgeStyle;rounded=0;orthogonalLoop=1;jettySize=auto;html=1;entryX=0;entryY=0.5;entryDx=0;entryDy=0;" edge="1" parent="1" source="Bs6r6sOlou3BlkuSGbO8-2" target="Bs6r6sOlou3BlkuSGbO8-24">
          <mxGeometry relative="1" as="geometry">
            <Array as="points">
              <mxPoint x="535" y="242" />
            </Array>
          </mxGeometry>
        </mxCell>
        <mxCell id="Bs6r6sOlou3BlkuSGbO8-44" style="edgeStyle=orthogonalEdgeStyle;rounded=0;orthogonalLoop=1;jettySize=auto;html=1;entryX=0;entryY=0.5;entryDx=0;entryDy=0;" edge="1" parent="1" source="Bs6r6sOlou3BlkuSGbO8-2" target="Bs6r6sOlou3BlkuSGbO8-42">
          <mxGeometry relative="1" as="geometry">
            <Array as="points">
              <mxPoint x="535" y="274" />
            </Array>
          </mxGeometry>
        </mxCell>
        <mxCell id="Bs6r6sOlou3BlkuSGbO8-47" style="edgeStyle=orthogonalEdgeStyle;rounded=0;orthogonalLoop=1;jettySize=auto;html=1;entryX=0;entryY=0.5;entryDx=0;entryDy=0;" edge="1" parent="1" source="Bs6r6sOlou3BlkuSGbO8-2" target="Bs6r6sOlou3BlkuSGbO8-46">
          <mxGeometry relative="1" as="geometry">
            <mxPoint x="544.3333333333334" y="313.66666666666663" as="targetPoint" />
            <Array as="points">
              <mxPoint x="535" y="305" />
            </Array>
          </mxGeometry>
        </mxCell>
        <mxCell id="Bs6r6sOlou3BlkuSGbO8-2" value="Squadra" style="rounded=0;whiteSpace=wrap;html=1;" vertex="1" parent="1">
          <mxGeometry x="475" y="96" width="120" height="60" as="geometry" />
        </mxCell>
        <mxCell id="Bs6r6sOlou3BlkuSGbO8-17" style="edgeStyle=orthogonalEdgeStyle;rounded=0;orthogonalLoop=1;jettySize=auto;html=1;entryX=1;entryY=0.5;entryDx=0;entryDy=0;" edge="1" parent="1" source="Bs6r6sOlou3BlkuSGbO8-3" target="Bs6r6sOlou3BlkuSGbO8-15">
          <mxGeometry relative="1" as="geometry" />
        </mxCell>
        <mxCell id="Bs6r6sOlou3BlkuSGbO8-35" style="edgeStyle=orthogonalEdgeStyle;rounded=0;orthogonalLoop=1;jettySize=auto;html=1;entryX=0;entryY=0.5;entryDx=0;entryDy=0;" edge="1" parent="1" source="Bs6r6sOlou3BlkuSGbO8-3" target="Bs6r6sOlou3BlkuSGbO8-31">
          <mxGeometry relative="1" as="geometry">
            <Array as="points">
              <mxPoint x="864" y="193" />
            </Array>
          </mxGeometry>
        </mxCell>
        <mxCell id="Bs6r6sOlou3BlkuSGbO8-36" style="edgeStyle=orthogonalEdgeStyle;rounded=0;orthogonalLoop=1;jettySize=auto;html=1;entryX=0;entryY=0.5;entryDx=0;entryDy=0;" edge="1" parent="1" source="Bs6r6sOlou3BlkuSGbO8-3" target="Bs6r6sOlou3BlkuSGbO8-26">
          <mxGeometry relative="1" as="geometry">
            <Array as="points">
              <mxPoint x="864" y="223" />
            </Array>
          </mxGeometry>
        </mxCell>
        <mxCell id="Bs6r6sOlou3BlkuSGbO8-37" style="edgeStyle=orthogonalEdgeStyle;rounded=0;orthogonalLoop=1;jettySize=auto;html=1;entryX=0;entryY=0.5;entryDx=0;entryDy=0;" edge="1" parent="1" source="Bs6r6sOlou3BlkuSGbO8-3" target="Bs6r6sOlou3BlkuSGbO8-28">
          <mxGeometry relative="1" as="geometry">
            <Array as="points">
              <mxPoint x="864" y="253" />
            </Array>
          </mxGeometry>
        </mxCell>
        <mxCell id="Bs6r6sOlou3BlkuSGbO8-38" style="edgeStyle=orthogonalEdgeStyle;rounded=0;orthogonalLoop=1;jettySize=auto;html=1;entryX=0;entryY=0.5;entryDx=0;entryDy=0;" edge="1" parent="1" source="Bs6r6sOlou3BlkuSGbO8-3" target="Bs6r6sOlou3BlkuSGbO8-32">
          <mxGeometry relative="1" as="geometry">
            <Array as="points">
              <mxPoint x="864" y="283" />
            </Array>
          </mxGeometry>
        </mxCell>
        <mxCell id="Bs6r6sOlou3BlkuSGbO8-3" value="Personaggi" style="rounded=0;whiteSpace=wrap;html=1;" vertex="1" parent="1">
          <mxGeometry x="804" y="96" width="120" height="60" as="geometry" />
        </mxCell>
        <mxCell id="Bs6r6sOlou3BlkuSGbO8-15" value="Appartiene" style="rhombus;whiteSpace=wrap;html=1;" vertex="1" parent="1">
          <mxGeometry x="660" y="86" width="80" height="80" as="geometry" />
        </mxCell>
        <mxCell id="Bs6r6sOlou3BlkuSGbO8-18" value="" style="endArrow=none;html=1;rounded=0;" edge="1" parent="1">
          <mxGeometry width="50" height="50" relative="1" as="geometry">
            <mxPoint x="787" y="150" as="sourcePoint" />
            <mxPoint x="787" y="108" as="targetPoint" />
          </mxGeometry>
        </mxCell>
        <mxCell id="Bs6r6sOlou3BlkuSGbO8-19" value="" style="ellipse;whiteSpace=wrap;html=1;aspect=fixed;fillColor=#f5f5f5;fontColor=#333333;strokeColor=#666666;" vertex="1" parent="1">
          <mxGeometry x="553" y="171" width="22" height="22" as="geometry" />
        </mxCell>
        <mxCell id="Bs6r6sOlou3BlkuSGbO8-20" value="Codice" style="text;html=1;align=center;verticalAlign=middle;whiteSpace=wrap;rounded=0;" vertex="1" parent="1">
          <mxGeometry x="573" y="167" width="60" height="30" as="geometry" />
        </mxCell>
        <mxCell id="Bs6r6sOlou3BlkuSGbO8-22" value="" style="ellipse;whiteSpace=wrap;html=1;aspect=fixed;" vertex="1" parent="1">
          <mxGeometry x="553" y="201" width="22" height="22" as="geometry" />
        </mxCell>
        <mxCell id="Bs6r6sOlou3BlkuSGbO8-23" value="Nome" style="text;html=1;align=center;verticalAlign=middle;whiteSpace=wrap;rounded=0;" vertex="1" parent="1">
          <mxGeometry x="573" y="200" width="58" height="29" as="geometry" />
        </mxCell>
        <mxCell id="Bs6r6sOlou3BlkuSGbO8-24" value="" style="ellipse;whiteSpace=wrap;html=1;aspect=fixed;" vertex="1" parent="1">
          <mxGeometry x="553" y="231" width="22" height="22" as="geometry" />
        </mxCell>
        <mxCell id="Bs6r6sOlou3BlkuSGbO8-25" value="NomeUtente" style="text;html=1;align=center;verticalAlign=middle;whiteSpace=wrap;rounded=0;" vertex="1" parent="1">
          <mxGeometry x="584" y="229" width="60" height="30" as="geometry" />
        </mxCell>
        <mxCell id="Bs6r6sOlou3BlkuSGbO8-26" value="" style="ellipse;whiteSpace=wrap;html=1;aspect=fixed;" vertex="1" parent="1">
          <mxGeometry x="896" y="212" width="22" height="22" as="geometry" />
        </mxCell>
        <mxCell id="Bs6r6sOlou3BlkuSGbO8-27" value="Nome" style="text;html=1;align=center;verticalAlign=middle;whiteSpace=wrap;rounded=0;" vertex="1" parent="1">
          <mxGeometry x="916" y="211" width="58" height="29" as="geometry" />
        </mxCell>
        <mxCell id="Bs6r6sOlou3BlkuSGbO8-28" value="" style="ellipse;whiteSpace=wrap;html=1;aspect=fixed;fillColor=#f5f5f5;fontColor=#333333;strokeColor=#666666;" vertex="1" parent="1">
          <mxGeometry x="896" y="242" width="22" height="22" as="geometry" />
        </mxCell>
        <mxCell id="Bs6r6sOlou3BlkuSGbO8-29" value="Categoria" style="text;html=1;align=center;verticalAlign=middle;whiteSpace=wrap;rounded=0;" vertex="1" parent="1">
          <mxGeometry x="922" y="240" width="60" height="30" as="geometry" />
        </mxCell>
        <mxCell id="Bs6r6sOlou3BlkuSGbO8-30" value="Codice" style="text;html=1;align=center;verticalAlign=middle;whiteSpace=wrap;rounded=0;" vertex="1" parent="1">
          <mxGeometry x="916" y="178" width="60" height="30" as="geometry" />
        </mxCell>
        <mxCell id="Bs6r6sOlou3BlkuSGbO8-31" value="" style="ellipse;whiteSpace=wrap;html=1;aspect=fixed;fillColor=#f5f5f5;fontColor=#333333;strokeColor=#666666;" vertex="1" parent="1">
          <mxGeometry x="896" y="182" width="22" height="22" as="geometry" />
        </mxCell>
        <mxCell id="Bs6r6sOlou3BlkuSGbO8-32" value="" style="ellipse;whiteSpace=wrap;html=1;aspect=fixed;" vertex="1" parent="1">
          <mxGeometry x="896" y="272" width="22" height="22" as="geometry" />
        </mxCell>
        <mxCell id="Bs6r6sOlou3BlkuSGbO8-34" value="Costo" style="text;html=1;align=center;verticalAlign=middle;resizable=0;points=[];autosize=1;strokeColor=none;fillColor=none;" vertex="1" parent="1">
          <mxGeometry x="919" y="271" width="49" height="26" as="geometry" />
        </mxCell>
        <mxCell id="Bs6r6sOlou3BlkuSGbO8-42" value="" style="ellipse;whiteSpace=wrap;html=1;aspect=fixed;" vertex="1" parent="1">
          <mxGeometry x="553" y="263" width="22" height="22" as="geometry" />
        </mxCell>
        <mxCell id="Bs6r6sOlou3BlkuSGbO8-43" value="img" style="text;html=1;align=center;verticalAlign=middle;whiteSpace=wrap;rounded=0;" vertex="1" parent="1">
          <mxGeometry x="575" y="264" width="41" height="21" as="geometry" />
        </mxCell>
        <mxCell id="Bs6r6sOlou3BlkuSGbO8-45" value="crediti" style="text;html=1;align=center;verticalAlign=middle;whiteSpace=wrap;rounded=0;" vertex="1" parent="1">
          <mxGeometry x="575" y="295" width="41" height="21" as="geometry" />
        </mxCell>
        <mxCell id="Bs6r6sOlou3BlkuSGbO8-46" value="" style="ellipse;whiteSpace=wrap;html=1;aspect=fixed;" vertex="1" parent="1">
          <mxGeometry x="553" y="294" width="22" height="22" as="geometry" />
        </mxCell>
      </root>
    </mxGraphModel>
  </diagram>
</mxfile>
